<svg width="256" height="100" viewBox="0 0 256 100" fill="none" xmlns="http://www.w3.org/2000/svg">
<g clip-path="url(#clip0_1_117)">
<path fill-rule="evenodd" clip-rule="evenodd" d="M37.3015 28.9548C38.7534 28.9548 39.9312 27.8737 39.9312 26.5403V21.8993C39.9312 20.586 41.0942 19.5198 42.5239 19.5198H49.4871C50.9186 19.5198 52.0798 20.586 52.0798 21.8993V28.2913C52.0798 29.6045 50.9186 30.6708 49.4871 30.6708H43.598C42.1461 30.6708 40.9683 31.7518 40.9683 33.0853V41.4578C40.9683 42.8696 39.7201 44.0158 38.1811 44.0158H27.3474C25.8085 44.0158 24.5603 42.8696 24.5603 41.4578V31.5128C24.5603 30.1009 25.8085 28.9548 27.3474 28.9548H37.3015Z" fill="#5EEAD4"/>
<path fill-rule="evenodd" clip-rule="evenodd" d="M70.4142 40.5635C70.4142 41.8963 71.5919 42.9775 73.0445 42.9775H79.1558C80.1061 42.9775 80.8776 43.6864 80.8776 44.5585V52.5485C80.8776 53.4206 80.1061 54.1295 79.1558 54.1295H70.4518C69.5016 54.1295 68.7301 53.4206 68.7301 52.5485V46.4285C68.7301 45.0957 67.5525 44.0145 66.0998 44.0145H56.794C55.2559 44.0145 54.0074 42.8687 54.0074 41.456V31.511C54.0074 30.0983 55.2559 28.9525 56.794 28.9525H67.6277C69.1657 28.9525 70.4142 30.0983 70.4142 31.511V40.5635Z" fill="#99F6E4"/>
<path fill-rule="evenodd" clip-rule="evenodd" d="M57.6717 70.7906C56.2198 70.7906 55.0419 71.8717 55.0419 73.2051V78.5601C55.0419 79.4324 54.2697 80.1406 53.3197 80.1406H44.6157C43.6656 80.1406 42.8934 79.4324 42.8934 78.5601V70.5701C42.8934 69.6979 43.6656 68.9896 44.6157 68.9896H51.3751C52.827 68.9896 54.0049 67.9086 54.0049 66.5751V58.2876C54.0049 56.8758 55.2531 55.7296 56.792 55.7296H67.6257C69.1646 55.7296 70.4128 56.8758 70.4128 58.2876V68.2326C70.4128 69.6445 69.1646 70.7906 67.6257 70.7906H57.6717Z" fill="#5EEAD4"/>
<path fill-rule="evenodd" clip-rule="evenodd" d="M24.5616 59.2649C24.5616 57.9321 23.384 56.851 21.9313 56.851H16.6904C15.2598 56.851 14.0983 55.7834 14.0983 54.471L14.0983 48.0789C14.0983 46.7648 15.2598 45.6989 16.6904 45.6989H23.6536C25.0842 45.6989 26.2457 46.7648 26.2457 48.0789L26.2457 53.3149C26.2457 54.6477 27.4234 55.7289 28.876 55.7289H38.1819C39.7199 55.7289 40.9684 56.8747 40.9684 58.2874V68.2324C40.9684 69.6451 39.7199 70.791 38.1819 70.791H27.3482C25.8101 70.791 24.5616 69.6451 24.5616 68.2324L24.5616 59.2649Z" fill="#99F6E4"/>
<path d="M116.634 84.172C108.09 84.172 102.714 81.004 99.8345 75.34V40.684H90.6185V33.292H95.8025C97.9145 33.292 99.2585 32.524 99.8345 31.084V15.724H108.666V33.292H122.202V40.684H108.666V71.5C109.914 74.188 112.506 76.012 117.978 76.012H122.49V83.5C120.954 83.884 118.746 84.172 116.634 84.172ZM161.722 67.084L169.69 70.54C165.754 79.372 157.018 85.036 145.786 85.036C133.882 85.036 124.378 77.836 121.402 68.524V48.172C124.282 38.86 133.594 31.852 145.498 31.852C157.21 31.852 166.426 38.86 169.306 48.172V61.036H130.138V66.316C131.674 71.98 137.914 76.876 145.882 76.876C154.234 76.876 159.418 72.748 161.722 67.084ZM145.402 39.724C137.626 39.724 131.578 44.62 130.138 50.284V53.836H160.666V50.284C159.13 44.62 153.178 39.724 145.402 39.724ZM194.562 31.852C205.218 31.852 213.666 37.516 216.45 44.908V83.5H208.194V77.932C204.45 82.348 198.594 84.844 191.97 84.844C182.754 84.844 175.746 80.812 173.154 75.628V64.492C175.938 58.252 183.81 55.372 192.834 54.316C201.762 53.164 206.562 52.3 207.714 50.572V47.212C205.986 43.372 201.474 40.012 194.562 40.012C187.746 40.012 181.89 43.948 179.778 49.324L172.098 45.58C175.362 37.9 184.098 31.852 194.562 31.852ZM207.714 70.444V57.388C206.082 58.924 201.954 60.076 194.37 61.228C186.978 62.284 183.234 64.108 181.698 66.988V72.46C183.426 74.956 186.978 77.164 193.506 77.164C199.938 77.164 205.314 74.38 207.714 70.444ZM230.944 83.5H222.112V15.724H230.944V83.5Z" fill="white"/>
</g>
<defs>
<clipPath id="clip0_1_117">
<rect width="256" height="100" fill="white"/>
</clipPath>
</defs>
</svg>
